<?xml version="1.0" encoding="UTF-8" standalone="no"?>
<svg
   width="16"
   height="16"
   fill="currentColor"
   class="bi bi-highlighter"
   viewBox="0 0 16 16"
   version="1.1"
   id="svg4"
   sodipodi:docname="green-highlighter.svg"
   inkscape:version="1.1.2 (0a00cf5339, 2022-02-04)"
   xmlns:inkscape="http://www.inkscape.org/namespaces/inkscape"
   xmlns:sodipodi="http://sodipodi.sourceforge.net/DTD/sodipodi-0.dtd"
   xmlns="http://www.w3.org/2000/svg"
   xmlns:svg="http://www.w3.org/2000/svg">
  <defs
     id="defs8" />
  <sodipodi:namedview
     id="namedview6"
     pagecolor="#ffffff"
     bordercolor="#666666"
     borderopacity="1.0"
     inkscape:pageshadow="2"
     inkscape:pageopacity="0.0"
     inkscape:pagecheckerboard="0"
     showgrid="false"
     inkscape:zoom="54.5625"
     inkscape:cx="8"
     inkscape:cy="7.9908362"
     inkscape:window-width="2560"
     inkscape:window-height="1563"
     inkscape:window-x="0"
     inkscape:window-y="0"
     inkscape:window-maximized="1"
     inkscape:current-layer="svg4" />
  <path
     style="fill:#00ff00;stroke:#000000;stroke-width:1px;stroke-linecap:butt;stroke-linejoin:miter;stroke-opacity:1"
     d="m 1.9966352,12.978021 c 0,-0.08541 0.2289519,-3.6367409 0.2289519,-3.6367409 L 11.469072,1.0386598 13.07238,0.81099656 14.897337,2.0977234 15.28372,3.1557847 14.98382,4.9514605 6.2459908,14.125931 3.2453465,13.868056"
     id="path95" />
  <path
     fill-rule="evenodd"
     d="M11.096.644a2 2 0 0 1 2.791.036l1.433 1.433a2 2 0 0 1 .035 2.791l-.413.435-8.07 8.995a.5.5 0 0 1-.372.166h-3a.5.5 0 0 1-.234-.058l-.412.412A.5.5 0 0 1 2.5 15h-2a.5.5 0 0 1-.354-.854l1.412-1.412A.5.5 0 0 1 1.5 12.5v-3a.5.5 0 0 1 .166-.372l8.995-8.07zm-.115 1.47L2.727 9.52l3.753 3.753 7.406-8.254zm3.585 2.17.064-.068a1 1 0 0 0-.017-1.396L13.18 1.387a1 1 0 0 0-1.396-.018l-.068.065zM5.293 13.5 2.5 10.707v1.586L3.707 13.5z"
     id="path2" />
</svg>
